<?xml version="1.0" encoding="UTF-8" standalone="no"?>
<!DOCTYPE svg PUBLIC "-//W3C//DTD SVG 1.1//EN"
 "http://www.w3.org/Graphics/SVG/1.1/DTD/svg11.dtd">
<!-- Generated by graphviz version 2.43.0 (0)
 -->
<!-- Pages: 1 -->
<svg width="818pt" height="476pt"
 viewBox="0.00 0.00 817.50 476.00" xmlns="http://www.w3.org/2000/svg" xmlns:xlink="http://www.w3.org/1999/xlink">
<g id="graph0" class="graph" transform="scale(1 1) rotate(0) translate(4 472)">
<polygon fill="white" stroke="transparent" points="-4,4 -4,-472 813.5,-472 813.5,4 -4,4"/>
<!-- eat
 -->
<g id="node1" class="node">
<title>eat
</title>
<ellipse fill="none" stroke="black" cx="220" cy="-18" rx="27" ry="18"/>
<text text-anchor="middle" x="220" y="-14.3" font-family="Times,serif" font-size="14.00">eat</text>
</g>
<!-- make dinner
 -->
<g id="node2" class="node">
<title>make dinner
</title>
<ellipse fill="none" stroke="black" cx="220" cy="-90" rx="59" ry="18"/>
<text text-anchor="middle" x="220" y="-86.3" font-family="Times,serif" font-size="14.00">make dinner</text>
</g>
<!-- make dinner
&#45;&gt;eat
 -->
<g id="edge1" class="edge">
<title>make dinner
&#45;&gt;eat
</title>
<path fill="none" stroke="black" d="M220,-71.7C220,-63.98 220,-54.71 220,-46.11"/>
<polygon fill="black" stroke="black" points="223.5,-46.1 220,-36.1 216.5,-46.1 223.5,-46.1"/>
</g>
<!-- buy ingredients
 -->
<g id="node3" class="node">
<title>buy ingredients
</title>
<ellipse fill="none" stroke="black" cx="71" cy="-234" rx="71" ry="18"/>
<text text-anchor="middle" x="71" y="-230.3" font-family="Times,serif" font-size="14.00">buy ingredients</text>
</g>
<!-- buy ingredients
&#45;&gt;make dinner
 -->
<g id="edge2" class="edge">
<title>buy ingredients
&#45;&gt;make dinner
</title>
<path fill="none" stroke="black" d="M88.38,-216.43C114.74,-191.32 164.93,-143.48 195.14,-114.69"/>
<polygon fill="black" stroke="black" points="197.9,-116.89 202.73,-107.46 193.07,-111.83 197.9,-116.89"/>
</g>
<!-- have a place to cook
 -->
<g id="node4" class="node">
<title>have a place to cook
</title>
<ellipse fill="none" stroke="black" cx="369" cy="-162" rx="90" ry="18"/>
<text text-anchor="middle" x="369" y="-158.3" font-family="Times,serif" font-size="14.00">have a place to cook</text>
</g>
<!-- have a place to cook
&#45;&gt;make dinner
 -->
<g id="edge3" class="edge">
<title>have a place to cook
&#45;&gt;make dinner
</title>
<path fill="none" stroke="black" d="M335.19,-145.12C312.85,-134.62 283.47,-120.82 259.98,-109.78"/>
<polygon fill="black" stroke="black" points="261.18,-106.48 250.64,-105.39 258.2,-112.81 261.18,-106.48"/>
</g>
<!-- find recipe
 -->
<g id="node5" class="node">
<title>find recipe
</title>
<ellipse fill="none" stroke="black" cx="71" cy="-306" rx="52.5" ry="18"/>
<text text-anchor="middle" x="71" y="-302.3" font-family="Times,serif" font-size="14.00">find recipe</text>
</g>
<!-- find recipe
&#45;&gt;buy ingredients
 -->
<g id="edge4" class="edge">
<title>find recipe
&#45;&gt;buy ingredients
</title>
<path fill="none" stroke="black" d="M71,-287.7C71,-279.98 71,-270.71 71,-262.11"/>
<polygon fill="black" stroke="black" points="74.5,-262.1 71,-252.1 67.5,-262.1 74.5,-262.1"/>
</g>
<!-- pay electric bill
 -->
<g id="node6" class="node">
<title>pay electric bill
</title>
<ellipse fill="none" stroke="black" cx="231" cy="-234" rx="71" ry="18"/>
<text text-anchor="middle" x="231" y="-230.3" font-family="Times,serif" font-size="14.00">pay electric bill</text>
</g>
<!-- pay electric bill
&#45;&gt;have a place to cook
 -->
<g id="edge5" class="edge">
<title>pay electric bill
&#45;&gt;have a place to cook
</title>
<path fill="none" stroke="black" d="M261.28,-217.64C280.91,-207.68 306.72,-194.59 328.15,-183.72"/>
<polygon fill="black" stroke="black" points="330.01,-186.7 337.35,-179.06 326.85,-180.46 330.01,-186.7"/>
</g>
<!-- buy stove
 -->
<g id="node7" class="node">
<title>buy stove
</title>
<ellipse fill="none" stroke="black" cx="369" cy="-234" rx="48.5" ry="18"/>
<text text-anchor="middle" x="369" y="-230.3" font-family="Times,serif" font-size="14.00">buy stove</text>
</g>
<!-- buy stove
&#45;&gt;have a place to cook
 -->
<g id="edge6" class="edge">
<title>buy stove
&#45;&gt;have a place to cook
</title>
<path fill="none" stroke="black" d="M369,-215.7C369,-207.98 369,-198.71 369,-190.11"/>
<polygon fill="black" stroke="black" points="372.5,-190.1 369,-180.1 365.5,-190.1 372.5,-190.1"/>
</g>
<!-- buy pots and pans
 -->
<g id="node8" class="node">
<title>buy pots and pans
</title>
<ellipse fill="none" stroke="black" cx="516" cy="-234" rx="80.5" ry="18"/>
<text text-anchor="middle" x="516" y="-230.3" font-family="Times,serif" font-size="14.00">buy pots and pans</text>
</g>
<!-- buy pots and pans
&#45;&gt;have a place to cook
 -->
<g id="edge7" class="edge">
<title>buy pots and pans
&#45;&gt;have a place to cook
</title>
<path fill="none" stroke="black" d="M483.38,-217.46C462.19,-207.38 434.36,-194.12 411.45,-183.22"/>
<polygon fill="black" stroke="black" points="412.83,-179.99 402.3,-178.86 409.82,-186.31 412.83,-179.99"/>
</g>
<!-- pay rent or buy a houe
 -->
<g id="node9" class="node">
<title>pay rent or buy a houe
</title>
<ellipse fill="none" stroke="black" cx="712" cy="-234" rx="97.5" ry="18"/>
<text text-anchor="middle" x="712" y="-230.3" font-family="Times,serif" font-size="14.00">pay rent or buy a houe</text>
</g>
<!-- pay rent or buy a houe
&#45;&gt;have a place to cook
 -->
<g id="edge8" class="edge">
<title>pay rent or buy a houe
&#45;&gt;have a place to cook
</title>
<path fill="none" stroke="black" d="M649.09,-220.16C589.82,-208.07 501.17,-189.97 439.53,-177.39"/>
<polygon fill="black" stroke="black" points="440,-173.92 429.5,-175.35 438.6,-180.78 440,-173.92"/>
</g>
<!-- help someone who can pay you
 -->
<g id="node10" class="node">
<title>help someone who can pay you
</title>
<ellipse fill="none" stroke="black" cx="369" cy="-378" rx="132.5" ry="18"/>
<text text-anchor="middle" x="369" y="-374.3" font-family="Times,serif" font-size="14.00">help someone who can pay you</text>
</g>
<!-- make income
 -->
<g id="node11" class="node">
<title>make income
</title>
<ellipse fill="none" stroke="black" cx="369" cy="-306" rx="63" ry="18"/>
<text text-anchor="middle" x="369" y="-302.3" font-family="Times,serif" font-size="14.00">make income</text>
</g>
<!-- help someone who can pay you
&#45;&gt;make income
 -->
<g id="edge9" class="edge">
<title>help someone who can pay you
&#45;&gt;make income
</title>
<path fill="none" stroke="black" d="M369,-359.7C369,-351.98 369,-342.71 369,-334.11"/>
<polygon fill="black" stroke="black" points="372.5,-334.1 369,-324.1 365.5,-334.1 372.5,-334.1"/>
</g>
<!-- make income
&#45;&gt;buy ingredients
 -->
<g id="edge11" class="edge">
<title>make income
&#45;&gt;buy ingredients
</title>
<path fill="none" stroke="black" d="M321.78,-293.91C270.15,-281.78 187.28,-262.31 131.06,-249.11"/>
<polygon fill="black" stroke="black" points="131.77,-245.68 121.23,-246.8 130.17,-252.49 131.77,-245.68"/>
</g>
<!-- make income
&#45;&gt;pay electric bill
 -->
<g id="edge12" class="edge">
<title>make income
&#45;&gt;pay electric bill
</title>
<path fill="none" stroke="black" d="M339.4,-289.98C319.3,-279.79 292.5,-266.19 270.57,-255.07"/>
<polygon fill="black" stroke="black" points="272.01,-251.88 261.51,-250.48 268.85,-258.12 272.01,-251.88"/>
</g>
<!-- make income
&#45;&gt;buy stove
 -->
<g id="edge13" class="edge">
<title>make income
&#45;&gt;buy stove
</title>
<path fill="none" stroke="black" d="M369,-287.7C369,-279.98 369,-270.71 369,-262.11"/>
<polygon fill="black" stroke="black" points="372.5,-262.1 369,-252.1 365.5,-262.1 372.5,-262.1"/>
</g>
<!-- make income
&#45;&gt;buy pots and pans
 -->
<g id="edge14" class="edge">
<title>make income
&#45;&gt;buy pots and pans
</title>
<path fill="none" stroke="black" d="M400.17,-290.15C421.75,-279.88 450.71,-266.09 474.27,-254.87"/>
<polygon fill="black" stroke="black" points="475.82,-258.01 483.34,-250.55 472.81,-251.69 475.82,-258.01"/>
</g>
<!-- make income
&#45;&gt;pay rent or buy a houe
 -->
<g id="edge15" class="edge">
<title>make income
&#45;&gt;pay rent or buy a houe
</title>
<path fill="none" stroke="black" d="M418.88,-294.82C476.84,-282.99 573,-263.37 639.29,-249.84"/>
<polygon fill="black" stroke="black" points="640.15,-253.23 649.25,-247.81 638.75,-246.38 640.15,-253.23"/>
</g>
<!-- learn how to help others
 -->
<g id="node12" class="node">
<title>learn how to help others
</title>
<ellipse fill="none" stroke="black" cx="369" cy="-450" rx="104.5" ry="18"/>
<text text-anchor="middle" x="369" y="-446.3" font-family="Times,serif" font-size="14.00">learn how to help others</text>
</g>
<!-- learn how to help others
&#45;&gt;help someone who can pay you
 -->
<g id="edge10" class="edge">
<title>learn how to help others
&#45;&gt;help someone who can pay you
</title>
<path fill="none" stroke="black" d="M369,-431.7C369,-423.98 369,-414.71 369,-406.11"/>
<polygon fill="black" stroke="black" points="372.5,-406.1 369,-396.1 365.5,-406.1 372.5,-406.1"/>
</g>
</g>
</svg>
