<?xml version="1.0" encoding="UTF-8" standalone="no"?>
<!DOCTYPE svg PUBLIC "-//W3C//DTD SVG 1.1//EN"
 "http://www.w3.org/Graphics/SVG/1.1/DTD/svg11.dtd">
<!-- Generated by graphviz version 2.43.0 (0)
 -->
<!-- Pages: 1 -->
<svg width="826pt" height="476pt"
 viewBox="0.00 0.00 825.50 476.00" xmlns="http://www.w3.org/2000/svg" xmlns:xlink="http://www.w3.org/1999/xlink">
<g id="graph0" class="graph" transform="scale(1 1) rotate(0) translate(4 472)">
<polygon fill="white" stroke="transparent" points="-4,4 -4,-472 821.5,-472 821.5,4 -4,4"/>
<!-- find recipe
 -->
<g id="node1" class="node">
<title>find recipe
</title>
<ellipse fill="none" stroke="black" cx="71" cy="-306" rx="52.5" ry="18"/>
<text text-anchor="middle" x="71" y="-302.3" font-family="Times,serif" font-size="14.00">find recipe</text>
</g>
<!-- buy ingredients
 -->
<g id="node2" class="node">
<title>buy ingredients
</title>
<ellipse fill="none" stroke="black" cx="71" cy="-234" rx="71" ry="18"/>
<text text-anchor="middle" x="71" y="-230.3" font-family="Times,serif" font-size="14.00">buy ingredients</text>
</g>
<!-- find recipe
&#45;&gt;buy ingredients
 -->
<g id="edge1" class="edge">
<title>find recipe
&#45;&gt;buy ingredients
</title>
<path fill="none" stroke="black" d="M71,-287.7C71,-279.98 71,-270.71 71,-262.11"/>
<polygon fill="black" stroke="black" points="74.5,-262.1 71,-252.1 67.5,-262.1 74.5,-262.1"/>
</g>
<!-- make dinner
 -->
<g id="node12" class="node">
<title>make dinner
</title>
<ellipse fill="none" stroke="black" cx="220" cy="-90" rx="59" ry="18"/>
<text text-anchor="middle" x="220" y="-86.3" font-family="Times,serif" font-size="14.00">make dinner</text>
</g>
<!-- buy ingredients
&#45;&gt;make dinner
 -->
<g id="edge12" class="edge">
<title>buy ingredients
&#45;&gt;make dinner
</title>
<path fill="none" stroke="black" d="M88.38,-216.43C114.74,-191.32 164.93,-143.48 195.14,-114.69"/>
<polygon fill="black" stroke="black" points="197.9,-116.89 202.73,-107.46 193.07,-111.83 197.9,-116.89"/>
</g>
<!-- pay electric bill
 -->
<g id="node3" class="node">
<title>pay electric bill
</title>
<ellipse fill="none" stroke="black" cx="231" cy="-234" rx="71" ry="18"/>
<text text-anchor="middle" x="231" y="-230.3" font-family="Times,serif" font-size="14.00">pay electric bill</text>
</g>
<!-- have a place to cook
 -->
<g id="node4" class="node">
<title>have a place to cook
</title>
<ellipse fill="none" stroke="black" cx="369" cy="-162" rx="90" ry="18"/>
<text text-anchor="middle" x="369" y="-158.3" font-family="Times,serif" font-size="14.00">have a place to cook</text>
</g>
<!-- pay electric bill
&#45;&gt;have a place to cook
 -->
<g id="edge2" class="edge">
<title>pay electric bill
&#45;&gt;have a place to cook
</title>
<path fill="none" stroke="black" d="M261.28,-217.64C280.91,-207.68 306.72,-194.59 328.15,-183.72"/>
<polygon fill="black" stroke="black" points="330.01,-186.7 337.35,-179.06 326.85,-180.46 330.01,-186.7"/>
</g>
<!-- have a place to cook
&#45;&gt;make dinner
 -->
<g id="edge13" class="edge">
<title>have a place to cook
&#45;&gt;make dinner
</title>
<path fill="none" stroke="black" d="M335.19,-145.12C312.85,-134.62 283.47,-120.82 259.98,-109.78"/>
<polygon fill="black" stroke="black" points="261.18,-106.48 250.64,-105.39 258.2,-112.81 261.18,-106.48"/>
</g>
<!-- earn income
 -->
<g id="node5" class="node">
<title>earn income
</title>
<ellipse fill="none" stroke="black" cx="369" cy="-306" rx="58.5" ry="18"/>
<text text-anchor="middle" x="369" y="-302.3" font-family="Times,serif" font-size="14.00">earn income</text>
</g>
<!-- earn income
&#45;&gt;buy ingredients
 -->
<g id="edge5" class="edge">
<title>earn income
&#45;&gt;buy ingredients
</title>
<path fill="none" stroke="black" d="M324.06,-294.44C272.68,-282.37 188.32,-262.56 131.26,-249.16"/>
<polygon fill="black" stroke="black" points="131.83,-245.69 121.29,-246.81 130.23,-252.51 131.83,-245.69"/>
</g>
<!-- earn income
&#45;&gt;pay electric bill
 -->
<g id="edge3" class="edge">
<title>earn income
&#45;&gt;pay electric bill
</title>
<path fill="none" stroke="black" d="M340.07,-290.33C319.88,-280.08 292.68,-266.29 270.49,-255.03"/>
<polygon fill="black" stroke="black" points="271.83,-251.78 261.32,-250.38 268.66,-258.03 271.83,-251.78"/>
</g>
<!-- buy stove
 -->
<g id="node6" class="node">
<title>buy stove
</title>
<ellipse fill="none" stroke="black" cx="369" cy="-234" rx="48.5" ry="18"/>
<text text-anchor="middle" x="369" y="-230.3" font-family="Times,serif" font-size="14.00">buy stove</text>
</g>
<!-- earn income
&#45;&gt;buy stove
 -->
<g id="edge4" class="edge">
<title>earn income
&#45;&gt;buy stove
</title>
<path fill="none" stroke="black" d="M369,-287.7C369,-279.98 369,-270.71 369,-262.11"/>
<polygon fill="black" stroke="black" points="372.5,-262.1 369,-252.1 365.5,-262.1 372.5,-262.1"/>
</g>
<!-- pay rent or buy a house
 -->
<g id="node7" class="node">
<title>pay rent or buy a house
</title>
<ellipse fill="none" stroke="black" cx="537" cy="-234" rx="101.5" ry="18"/>
<text text-anchor="middle" x="537" y="-230.3" font-family="Times,serif" font-size="14.00">pay rent or buy a house</text>
</g>
<!-- earn income
&#45;&gt;pay rent or buy a house
 -->
<g id="edge6" class="edge">
<title>earn income
&#45;&gt;pay rent or buy a house
</title>
<path fill="none" stroke="black" d="M402.19,-291.17C427.17,-280.76 461.75,-266.36 489.63,-254.74"/>
<polygon fill="black" stroke="black" points="491.3,-257.83 499.19,-250.76 488.61,-251.37 491.3,-257.83"/>
</g>
<!-- buy pots and pans
 -->
<g id="node8" class="node">
<title>buy pots and pans
</title>
<ellipse fill="none" stroke="black" cx="737" cy="-234" rx="80.5" ry="18"/>
<text text-anchor="middle" x="737" y="-230.3" font-family="Times,serif" font-size="14.00">buy pots and pans</text>
</g>
<!-- earn income
&#45;&gt;buy pots and pans
 -->
<g id="edge7" class="edge">
<title>earn income
&#45;&gt;buy pots and pans
</title>
<path fill="none" stroke="black" d="M417.39,-295.82C473.03,-285.27 567.12,-267.41 648,-252 654.29,-250.8 660.82,-249.56 667.37,-248.31"/>
<polygon fill="black" stroke="black" points="668.47,-251.66 677.64,-246.35 667.16,-244.78 668.47,-251.66"/>
</g>
<!-- buy stove
&#45;&gt;have a place to cook
 -->
<g id="edge10" class="edge">
<title>buy stove
&#45;&gt;have a place to cook
</title>
<path fill="none" stroke="black" d="M369,-215.7C369,-207.98 369,-198.71 369,-190.11"/>
<polygon fill="black" stroke="black" points="372.5,-190.1 369,-180.1 365.5,-190.1 372.5,-190.1"/>
</g>
<!-- pay rent or buy a house
&#45;&gt;have a place to cook
 -->
<g id="edge14" class="edge">
<title>pay rent or buy a house
&#45;&gt;have a place to cook
</title>
<path fill="none" stroke="black" d="M498.88,-217.12C474.13,-206.81 441.72,-193.3 415.47,-182.36"/>
<polygon fill="black" stroke="black" points="416.68,-179.08 406.1,-178.46 413.99,-185.54 416.68,-179.08"/>
</g>
<!-- buy pots and pans
&#45;&gt;have a place to cook
 -->
<g id="edge15" class="edge">
<title>buy pots and pans
&#45;&gt;have a place to cook
</title>
<path fill="none" stroke="black" d="M677.64,-221.65C667.74,-219.76 657.58,-217.83 648,-216 577.98,-202.66 498.07,-187.49 441.77,-176.8"/>
<polygon fill="black" stroke="black" points="442.36,-173.35 431.89,-174.93 441.06,-180.23 442.36,-173.35"/>
</g>
<!-- help someone who can pay you
 -->
<g id="node9" class="node">
<title>help someone who can pay you
</title>
<ellipse fill="none" stroke="black" cx="369" cy="-378" rx="132.5" ry="18"/>
<text text-anchor="middle" x="369" y="-374.3" font-family="Times,serif" font-size="14.00">help someone who can pay you</text>
</g>
<!-- help someone who can pay you
&#45;&gt;earn income
 -->
<g id="edge8" class="edge">
<title>help someone who can pay you
&#45;&gt;earn income
</title>
<path fill="none" stroke="black" d="M369,-359.7C369,-351.98 369,-342.71 369,-334.11"/>
<polygon fill="black" stroke="black" points="372.5,-334.1 369,-324.1 365.5,-334.1 372.5,-334.1"/>
</g>
<!-- learn how to help others
 -->
<g id="node10" class="node">
<title>learn how to help others
</title>
<ellipse fill="none" stroke="black" cx="369" cy="-450" rx="104.5" ry="18"/>
<text text-anchor="middle" x="369" y="-446.3" font-family="Times,serif" font-size="14.00">learn how to help others</text>
</g>
<!-- learn how to help others
&#45;&gt;help someone who can pay you
 -->
<g id="edge9" class="edge">
<title>learn how to help others
&#45;&gt;help someone who can pay you
</title>
<path fill="none" stroke="black" d="M369,-431.7C369,-423.98 369,-414.71 369,-406.11"/>
<polygon fill="black" stroke="black" points="372.5,-406.1 369,-396.1 365.5,-406.1 372.5,-406.1"/>
</g>
<!-- eat
 -->
<g id="node11" class="node">
<title>eat
</title>
<ellipse fill="none" stroke="black" cx="220" cy="-18" rx="27" ry="18"/>
<text text-anchor="middle" x="220" y="-14.3" font-family="Times,serif" font-size="14.00">eat</text>
</g>
<!-- make dinner
&#45;&gt;eat
 -->
<g id="edge11" class="edge">
<title>make dinner
&#45;&gt;eat
</title>
<path fill="none" stroke="black" d="M220,-71.7C220,-63.98 220,-54.71 220,-46.11"/>
<polygon fill="black" stroke="black" points="223.5,-46.1 220,-36.1 216.5,-46.1 223.5,-46.1"/>
</g>
</g>
</svg>
